<svg width="24" height="24" viewBox="0 0 24 24" fill="none" xmlns="http://www.w3.org/2000/svg">
<g clip-path="url(#clip0_1416_1842)">
<path d="M20.8601 13.2487L23.0684 8.457C23.1687 8.23927 23.1512 7.98549 23.022 7.78359C22.8927 7.5817 22.6695 7.45959 22.4298 7.45959H19.8983C19.805 7.45959 19.7126 7.47816 19.6264 7.51425L18.3138 8.06447L18.3067 8.02824C18.2424 7.698 17.9531 7.45959 17.6166 7.45959H9.67981C9.2915 7.45959 8.97668 7.77441 8.97668 8.16272V14.634L10.0639 19.0377H13.1816C13.2837 19.0377 13.3845 19.0155 13.4771 18.9726L14.553 18.4743L14.6106 18.6098C14.721 18.8693 14.9757 19.0377 15.2577 19.0377H22.4297C22.6694 19.0377 22.8926 18.9156 23.0219 18.7137C23.1511 18.5118 23.1687 18.258 23.0683 18.0403L20.8601 13.2487Z" fill="#EA1C81"/>
<path d="M13.5997 13.8342L8.97668 13.3286V18.3346C8.97668 18.7229 9.2915 19.0377 9.67981 19.0377H10.0639L14.0236 15.0272C14.2131 14.8353 14.2761 14.5519 14.1858 14.2978C14.0956 14.0437 13.8679 13.8636 13.5997 13.8342Z" fill="#A5007C"/>
<path d="M13.5233 3.65625H9.6796C9.5491 3.65625 9.42113 3.69258 9.31013 3.76116L8.42803 4.30598L8.34497 4.09823C8.2381 3.83128 7.97953 3.65625 7.69205 3.65625H4.94522C4.55691 3.65625 4.2421 3.97106 4.2421 4.35938V14.5312C4.2421 14.9196 4.55691 15.2344 4.94522 15.2344H13.5233C13.9117 15.2344 14.2265 14.9196 14.2265 14.5312V4.35938C14.2265 3.97106 13.9117 3.65625 13.5233 3.65625Z" fill="#BC00A2"/>
<path d="M3.25772 0C2.09461 0 1.14835 0.946264 1.14835 2.10937V23.2969C1.14835 23.6852 1.46316 24 1.85147 24H4.66396C5.05228 24 5.36709 23.6852 5.36709 23.2969V2.10937C5.36709 0.946264 4.42082 0 3.25772 0Z" fill="#74564F"/>
<path d="M3.25772 0V24H4.66397C5.05228 24 5.36709 23.6852 5.36709 23.2969V2.10937C5.36709 0.946264 4.42083 0 3.25772 0Z" fill="#604A43"/>
<path d="M4.94522 3.1875H1.57022C1.18191 3.1875 0.867096 3.50231 0.867096 3.89062V15C0.867096 15.3883 1.18191 15.7031 1.57022 15.7031H4.94522C5.33353 15.7031 5.64835 15.3883 5.64835 15V3.89062C5.64835 3.50231 5.33353 3.1875 4.94522 3.1875Z" fill="#FF405C"/>
<path d="M4.94522 3.1875H3.25772V15.7031H4.94522C5.33353 15.7031 5.64835 15.3883 5.64835 15V3.89062C5.64835 3.50231 5.33353 3.1875 4.94522 3.1875Z" fill="#EA1C81"/>
</g>
<defs>
<clipPath id="clip0_1416_1842">
<rect width="24" height="24" fill="white"/>
</clipPath>
</defs>
</svg>
