<svg width="32" height="32" viewBox="0 0 32 32" fill="none" xmlns="http://www.w3.org/2000/svg">
<path d="M16 29.3332C23.364 29.3332 29.3333 23.3638 29.3333 15.9998C29.3333 8.63584 23.364 2.6665 16 2.6665C8.63596 2.6665 2.66663 8.63584 2.66663 15.9998C2.66663 23.3638 8.63596 29.3332 16 29.3332Z" stroke="#E12151" stroke-width="2"/>
<path d="M16.0001 29.9995C23.7323 29.9995 30.0001 23.7317 30.0001 15.9995C30.0001 8.26731 23.7323 1.99951 16.0001 1.99951C8.26792 1.99951 2.00012 8.26731 2.00012 15.9995C2.00012 23.7317 8.26792 29.9995 16.0001 29.9995Z" stroke="#E12151" stroke-width="2" stroke-linejoin="round"/>
<path d="M22 18L16 12L10 18" stroke="#E12151" stroke-width="2" stroke-linecap="round" stroke-linejoin="round"/>
</svg>
